<?xml version="1.0" encoding="UTF-8" standalone="no"?>
<svg
   xmlns:dc="http://purl.org/dc/elements/1.1/"
   xmlns:cc="http://creativecommons.org/ns#"
   xmlns:rdf="http://www.w3.org/1999/02/22-rdf-syntax-ns#"
   xmlns:svg="http://www.w3.org/2000/svg"
   xmlns="http://www.w3.org/2000/svg"
   xmlns:sodipodi="http://sodipodi.sourceforge.net/DTD/sodipodi-0.dtd"
   xmlns:inkscape="http://www.inkscape.org/namespaces/inkscape"
   width="425"
   height="360"
   viewBox="0 0 425 360"
   fill="none"
   version="1.1"
   id="svg149"
   sodipodi:docname="logo.svg"
   inkscape:export-filename="/home/dennis/logo.png"
   inkscape:export-xdpi="96"
   inkscape:export-ydpi="96"
   inkscape:version="1.0.1 (3bc2e813f5, 2020-09-07)">
  <metadata
     id="metadata153">
    <rdf:RDF>
      <cc:Work
         rdf:about="">
        <dc:format>image/svg+xml</dc:format>
        <dc:type
           rdf:resource="http://purl.org/dc/dcmitype/StillImage" />
      </cc:Work>
    </rdf:RDF>
  </metadata>
  <sodipodi:namedview
     pagecolor="#ffffff"
     bordercolor="#666666"
     borderopacity="1"
     objecttolerance="10"
     gridtolerance="10"
     guidetolerance="10"
     inkscape:pageopacity="0"
     inkscape:pageshadow="2"
     inkscape:window-width="1366"
     inkscape:window-height="741"
     id="namedview151"
     showgrid="false"
     inkscape:zoom="6.0666667"
     inkscape:cx="164.92092"
     inkscape:cy="313.79901"
     inkscape:window-x="0"
     inkscape:window-y="27"
     inkscape:window-maximized="1"
     inkscape:current-layer="svg149" />
  <g
     clip-path="url(#clip0)"
     id="g124">
    <path
       fill-rule="evenodd"
       clip-rule="evenodd"
       d="M90 0C40.2944 0 0 40.2944 0 90C0 139.706 40.2944 180 90 180C139.706 180 180 139.706 180 90C180 40.2944 139.706 0 90 0ZM90 25C54.1015 25 25 54.1015 25 90C25 125.899 54.1015 155 90 155C125.899 155 155 125.899 155 90C155 54.1015 125.899 25 90 25Z"
       fill="black"
       id="path122" />
  </g>
  <rect
     x="155"
     width="25"
     height="272.86749"
     fill="#000000"
     id="rect126"
     y="0"
     style="stroke-width:1.00529" />
  <rect
     x="245"
     width="25"
     height="360"
     fill="black"
     id="rect128" />
  <g
     clip-path="url(#clip1)"
     id="g132">
    <path
       fill-rule="evenodd"
       clip-rule="evenodd"
       d="M335 0C285.294 0 245 40.2944 245 90C245 139.706 285.294 180 335 180C384.706 180 425 139.706 425 90C425 40.2944 384.706 0 335 0ZM335 25C299.101 25 270 54.1015 270 90C270 125.899 299.101 155 335 155C370.899 155 400 125.899 400 90C400 54.1015 370.899 25 335 25Z"
       fill="black"
       id="path130" />
  </g>
  <g
     clip-path="url(#clip2)"
     id="g136">
    <path
       fill-rule="evenodd"
       clip-rule="evenodd"
       d="M90 180C40.2944 180 0 220.294 0 270C0 319.706 40.2944 360 90 360C139.706 360 180 319.706 180 270C180 220.294 139.706 180 90 180ZM90 205C54.1015 205 25 234.101 25 270C25 305.899 54.1015 335 90 335C125.899 335 155 305.899 155 270C155 234.101 125.899 205 90 205Z"
       fill="black"
       id="path134" />
  </g>
  <defs
     id="defs147">
    <clipPath
       id="clip0">
      <rect
         width="90"
         height="180"
         fill="white"
         id="rect138" />
    </clipPath>
    <clipPath
       id="clip1">
      <rect
         width="90"
         height="180"
         fill="white"
         transform="translate(425 180) rotate(-180)"
         id="rect141" />
    </clipPath>
    <clipPath
       id="clip2">
      <rect
         width="90"
         height="180"
         fill="white"
         transform="translate(0 360) rotate(-90)"
         id="rect144" />
    </clipPath>
  </defs>
</svg>
